<svg width="16" height="14" viewBox="0 0 16 14" fill="none" xmlns="http://www.w3.org/2000/svg">
<path fill-rule="evenodd" clip-rule="evenodd" d="M2.33423 2.15646C1.76936 2.66876 1.37143 3.48526 1.37143 4.72395C1.37143 5.49178 1.74054 6.37595 2.39401 7.31711C3.0395 8.24677 3.91325 9.16191 4.80764 9.97678C5.69901 10.7889 6.59325 11.4856 7.26619 11.98C7.5571 12.1937 7.80563 12.3689 7.99334 12.4985C8.18198 12.3641 8.43262 12.1821 8.72639 11.9604C9.40033 11.4517 10.296 10.7378 11.1889 9.9135C12.0848 9.08641 12.9605 8.16421 13.6075 7.24032C14.2647 6.30178 14.6286 5.44202 14.6286 4.72398C14.6286 2.85557 13.1163 1.35487 11.2692 1.35487C10.1581 1.35487 9.17135 1.89912 8.55652 2.74372C8.42767 2.92072 8.22047 3.02564 7.99979 3.02563C7.77911 3.02562 7.57192 2.92069 7.44309 2.74369C6.82837 1.89912 5.84181 1.35487 4.73039 1.35487C3.73916 1.35487 2.90933 1.63487 2.33423 2.15646ZM7.99982 13.3229C7.62433 13.8897 7.6242 13.8897 7.62404 13.8896L7.62215 13.8883L7.61733 13.8852L7.5999 13.8738C7.58488 13.864 7.56313 13.8497 7.5351 13.831C7.47905 13.7938 7.39785 13.7394 7.29508 13.669C7.08961 13.5284 6.79758 13.3242 6.44779 13.0672C5.74933 12.554 4.81505 11.8266 3.87789 10.9728C2.94375 10.1217 1.98898 9.12898 1.26308 8.0835C0.545151 7.04952 0 5.89125 0 4.72395C0 3.1806 0.507664 1.97383 1.40677 1.15839C2.29563 0.352238 3.48815 0 4.73039 0C6.00311 0 7.15307 0.503906 7.99985 1.31539C8.84671 0.503913 9.99675 0 11.2692 0C13.8899 0 16 2.12338 16 4.72398C16 5.85265 15.4496 6.99111 14.7353 8.01113C14.0108 9.04579 13.0579 10.0425 12.1252 10.9034C11.1895 11.7672 10.2565 12.5105 9.55901 13.037C9.20971 13.3007 8.91813 13.5109 8.71307 13.6559C8.61051 13.7284 8.5295 13.7845 8.47364 13.823C8.4457 13.8422 8.42405 13.8569 8.40912 13.8671L8.39183 13.8788L8.38707 13.882L8.38568 13.8829C8.38552 13.883 8.38495 13.8834 7.99982 13.3229ZM7.99982 13.3229L8.38568 13.8829C8.15667 14.0365 7.85564 14.0393 7.62404 13.8896L7.99982 13.3229Z" fill="#E5E5E5"/>
</svg>
